<svg width="1104" height="1191" viewBox="0 0 1104 1191" fill="none" xmlns="http://www.w3.org/2000/svg">
<path d="M354.883 714.771V844.623H445.918V720.39C445.918 708.303 450.714 696.711 459.25 688.164C467.786 679.618 479.364 674.816 491.436 674.816H584.778C628.323 674.803 670.08 657.476 700.867 626.644C731.654 595.812 748.951 554.001 748.954 510.403C748.954 466.799 731.655 424.981 700.862 394.146C670.069 363.31 628.304 345.984 584.753 345.978H354.883V508.293H445.918V431.768H578.618C599.222 431.768 618.983 439.961 633.554 454.546C648.126 469.13 656.316 488.912 656.322 509.542C656.322 530.175 648.136 549.964 633.563 564.554C618.991 579.144 599.226 587.341 578.618 587.341H482.145C465.43 587.333 448.876 590.623 433.432 597.024C417.987 603.426 403.954 612.812 392.134 624.647C380.315 636.481 370.942 650.533 364.55 665.997C358.158 681.461 354.873 698.035 354.883 714.771Z" fill="url(#paint0_radial_11394_191937)"/>
<path d="M491.411 674.816C455.202 674.82 420.478 689.223 394.875 714.857C369.271 740.492 354.886 775.258 354.883 811.511V844.623H445.918V720.39C445.918 708.307 450.71 696.719 459.241 688.173C467.772 679.627 479.343 674.823 491.411 674.816Z" fill="url(#paint1_linear_11394_191937)"/>
<defs>
<radialGradient id="paint0_radial_11394_191937" cx="0" cy="0" r="1" gradientUnits="userSpaceOnUse" gradientTransform="translate(750.388 276.744) scale(501.281 501.892)">
<stop stop-color="#A995FF"/>
<stop offset="1" stop-color="#6652F5"/>
</radialGradient>
<linearGradient id="paint1_linear_11394_191937" x1="423.147" y1="820.064" x2="423.147" y2="629.256" gradientUnits="userSpaceOnUse">
<stop stop-color="#6D4BFD"/>
<stop offset="1" stop-color="#1C0554"/>
</linearGradient>
</defs>
</svg>
